<?xml version="1.0" encoding="utf-8"?>
<!-- Generator: Adobe Illustrator 20.1.0, SVG Export Plug-In . SVG Version: 6.00 Build 0)  -->
<svg version="1.1" xmlns="http://www.w3.org/2000/svg" xmlns:xlink="http://www.w3.org/1999/xlink" x="0px" y="0px"
	 viewBox="0 0 300 300" style="enable-background:new 0 0 300 300;" xml:space="preserve">
<style type="text/css">
	.st0{fill:none;stroke:#3B4042;stroke-width:2.25;stroke-linejoin:round;stroke-miterlimit:10;}
	.st1{fill:#3B4042;}
	.st2{display:none;}
	.st3{display:inline;}
	.st4{fill:#E16960;}
</style>
<g id="graphics">
	<g>
		<g>
			<path class="st0" d="M166.6,199"/>
		</g>
		<g>
			<path class="st1" d="M107.5,191.8c-22.1-22.1-22.1-58.1,0-80.2l9.4-9.4L64.4,49.7l11.1-11.1l58.1,58.1c1.5,1.5,2.3,3.5,2.3,5.6
				c0,2.1-0.8,4.1-2.3,5.6l-15,15c-16,16-16,42,0,58L107.5,191.8z"/>
		</g>
		<g>
			<path class="st1" d="M249.6,234.9l-52.5-52.5l-9.4,9.4c-22.1,22.1-58.1,22.1-80.2,0l11.1-11.1c16,16,42,16,58,0l15-15
				c3.1-3.1,8-3.1,11.1,0l58.1,58.1L249.6,234.9z"/>
		</g>
		<g>
			<path class="st1" d="M189.2,261.4c-36.8,0-73-14.5-101.8-42.2c-45.4-43.7-60-106.8-38.1-164.5L64,60.3
				C44.3,112,57.4,168.5,98.3,207.9c38.8,37.4,92.6,47.9,140.5,27.6l6.1,14.5C226.8,257.6,207.9,261.4,189.2,261.4z"/>
		</g>
	</g>
</g>
<g id="text" class="st2">
	<g class="st3">
		<g>
			<path class="st1" d="M150,163.1c-34.2,0-62-27.8-62-62s27.8-62,62-62s62,27.8,62,62S184.2,163.1,150,163.1z M150,54.9
				c-25.5,0-46.3,20.8-46.3,46.3s20.8,46.3,46.3,46.3s46.3-20.8,46.3-46.3S175.5,54.9,150,54.9z"/>
		</g>
		<g>
			<path class="st1" d="M233.5,260.8H150v-15.7h74.6l-6.4-50.6L188,181.1l6.4-14.4l34.3,15.2c2.5,1.1,4.3,3.5,4.6,6.2l8,63.9
				c0.3,2.2-0.4,4.5-1.9,6.2S235.8,260.8,233.5,260.8z"/>
		</g>
		<g>
			<path class="st1" d="M150,260.8H66.5c-2.3,0-4.4-1-5.9-2.7c-1.5-1.7-2.2-3.9-1.9-6.2l8-63.9c0.3-2.7,2.1-5.1,4.6-6.2l34.3-15.2
				l6.4,14.4l-30.2,13.4l-6.4,50.6H150V260.8z"/>
		</g>
	</g>
</g>
<g id="Layer_4" class="st2">
	<g class="st3">
		<g>
			<path class="st1" d="M192.5,229.5H51.6c-4.3,0-7.9-3.5-7.9-7.9V47c0-4.3,3.5-7.9,7.9-7.9h140.9c4.3,0,7.9,3.5,7.9,7.9v174.7
				C200.4,226,196.8,229.5,192.5,229.5z M59.5,213.8h125.1V54.8H59.5V213.8z"/>
		</g>
		<g>
			<path class="st1" d="M248.4,260.9H107.5c-4.3,0-7.9-3.5-7.9-7.9v-31.4h15.7v23.6h125.1V86.3h-48V70.5h55.9c4.3,0,7.9,3.5,7.9,7.9
				V253C256.2,257.4,252.7,260.9,248.4,260.9z"/>
		</g>
		<g>
			<rect x="79.6" y="77.1" class="st1" width="83.8" height="15.7"/>
		</g>
		<g>
			<rect x="79.6" y="123.5" class="st1" width="83.8" height="15.7"/>
		</g>
		<g>
			<rect x="79.6" y="170" class="st1" width="83.8" height="15.7"/>
		</g>
		<g>
			<path class="st0" d="M163.4,201.6"/>
		</g>
		<g>
			<path class="st0" d="M79.6,201.6"/>
		</g>
	</g>
</g>
<g id="Layer_5" class="st2">
	<g class="st3">
		<g>
			<path class="st1" d="M169.3,261C169.3,261,169.3,261,169.3,261c-10.8,0-20.9-4.2-28.5-11.8l-4.2-4.2c-3.2-3.2-6.4-6.2-9.6-9.3
				c-8.7-8.3-17.8-16.9-25.3-27.1c-0.2-0.3-0.4-0.6-0.6-0.9l-8.7-16.2c-3.8-5.1-8-10-12.6-14.5l-17.7-17.7l11.1-11.1L91,165.8
				c5.2,5.2,10.1,10.9,14.4,16.8c0.2,0.3,0.4,0.6,0.6,0.9l8.7,16.2c6.6,8.9,14.7,16.5,23.1,24.6c3.3,3.2,6.6,6.3,9.9,9.6l4.2,4.2
				c4.6,4.6,10.8,7.2,17.4,7.2h0c6.6,0,12.7-2.6,17.4-7.2l44-44c4.6-4.6,7.2-10.8,7.2-17.4s-2.6-12.7-7.2-17.4l-8.3-8.4
				c-20.7,15.2-43.4,15.8-83.8-19.4c-7.3,7.6-17.4,15.4-30.8,17c-0.3,0-0.7,0.1-1,0.1c-9.5-0.1-16.1-5.1-19.1-14.4
				c-1.4-4.9,0.2-9.6,1.8-12.8c5.6-11.3,11.8-20,19.1-26.6c7.4-7.6,15.9-11.1,25.4-14.6c8.5-2.4,20.3-2.3,28.5-1.3l2.1,0.3
				c4.7,0.6,8.7,1.1,11.1,0.5l0.2-0.1c1.5-0.8,2.3-1.1,2.8-1.5c0.2-0.2,0.5-0.5,0.8-0.9c0.9-1,2.3-2.4,4.7-4.8L195,83.7
				c-2.2,2.1-3.3,3.3-4.2,4.2c-2.7,2.8-3.5,3.3-7.8,5.6l-0.8,0.4c-0.3,0.2-0.7,0.3-1,0.4c-5.9,2.1-11.9,1.3-18.8,0.4l-2-0.3
				c-7.6-1-17-0.7-21.7,0.6c-7.6,2.8-13.9,5.4-19.3,11c-6.1,5.6-11.2,12.8-15.9,22.3c-0.4,0.8-0.6,1.4-0.7,1.8
				c0.9,2.4,1.7,2.7,3.5,2.7c8.7-1.2,16.6-6.6,25.4-17.4c1.4-1.7,3.4-2.7,5.5-2.9c2.1-0.2,4.3,0.6,5.9,2
				c47.4,43.5,61.8,31,74.6,19.9c3.1-2.7,7.8-2.6,10.7,0.4l13.3,13.3c7.6,7.6,11.8,17.7,11.8,28.5c0,10.8-4.2,20.9-11.8,28.5l-44,44
				C190.2,256.8,180.1,261,169.3,261z M102.8,130.4L102.8,130.4L102.8,130.4z"/>
		</g>
		<g>
			<path class="st1" d="M257.4,130.2c-4.9,0-9.8-1.9-13.5-5.6l-46.2-46.2c-3.6-3.6-5.6-8.4-5.6-13.5s2-9.9,5.6-13.5l6.7-6.7
				c7.5-7.5,19.6-7.5,27.1,0l46.2,46.2c7.4,7.5,7.4,19.6,0,27.1l-6.7,6.7C267.2,128.3,262.3,130.2,257.4,130.2z M217.9,54.7
				c-0.9,0-1.8,0.3-2.4,1l-6.7,6.7c-0.9,0.9-1,1.9-1,2.4c0,0.5,0.1,1.5,1,2.4l46.2,46.2c1.3,1.3,3.5,1.3,4.8,0l6.7-6.7
				c1.3-1.3,1.3-3.5,0-4.8l-46.2-46.2C219.7,55.1,218.8,54.7,217.9,54.7z"/>
		</g>
		<g>
			<path class="st1" d="M42.6,143c-4.9,0-9.8-1.9-13.5-5.6l-6.7-6.7c-7.5-7.5-7.5-19.6,0-27.1l46.2-46.2c7.2-7.2,19.8-7.2,27.1,0
				l6.7,6.7c3.6,3.6,5.6,8.4,5.6,13.5s-2,9.9-5.6,13.5l-46.2,46.2C52.4,141.1,47.5,143,42.6,143z M82.1,67.6c-0.5,0-1.5,0.1-2.4,1
				l-46.2,46.2c-0.9,0.9-1,1.9-1,2.4c0,0.5,0.1,1.5,1,2.4l6.7,6.7c1.3,1.3,3.5,1.3,4.8,0l46.2-46.2c0.9-0.9,1-1.9,1-2.4
				c0-0.5-0.1-1.5-1-2.4l-6.7-6.7C83.6,67.7,82.6,67.6,82.1,67.6z"/>
		</g>
	</g>
</g>
<g id="Layer_6" class="st2">
	<g class="st3">
		<g>
			<g>
				<g>
					<path class="st4" d="M94.7,76.6c-15.7,0-28.5-12.8-28.5-28.5S79,19.7,94.7,19.7s28.5,12.8,28.5,28.5S110.4,76.6,94.7,76.6z
						 M94.7,36c-6.7,0-12.2,5.5-12.2,12.2S88,60.4,94.7,60.4c6.7,0,12.2-5.5,12.2-12.2S101.4,36,94.7,36z"/>
				</g>
			</g>
			<g>
				<g>
					<path class="st4" d="M141,187.1h-8.1c-2.2,0-4.1-1.8-4.1-4.1v-58.2c0-4.8-2.2-9.2-6-11.8c-5.3-3.7-14.5-8.2-28.1-8.2
						s-22.8,4.5-28.1,8.2c-3.7,2.6-6,7-6,11.8V183c0,2.2-1.8,4.1-4.1,4.1h-8.1c-2.2,0-4.1-1.8-4.1-4.1v-58.2
						c0-10,4.8-19.4,12.9-25.1c7.2-5.1,19.6-11.2,37.5-11.2s30.3,6.1,37.5,11.2c8.1,5.7,12.9,15,12.9,25.1V183
						C145.1,185.3,143.3,187.1,141,187.1z"/>
				</g>
			</g>
			<g>
				<g>
					<path class="st4" d="M179.2,76.6c-15.7,0-28.5-12.8-28.5-28.5s12.8-28.5,28.5-28.5s28.5,12.8,28.5,28.5S194.9,76.6,179.2,76.6z
						 M179.2,36c-6.7,0-12.2,5.5-12.2,12.2s5.5,12.2,12.2,12.2c6.7,0,12.2-5.5,12.2-12.2S185.9,36,179.2,36z"/>
				</g>
			</g>
			<g>
				<g>
					<path class="st4" d="M141,187.1h-8.1c-2.2,0-4.1-1.8-4.1-4.1v-58.2c0-10.1,4.8-19.4,12.9-25.1c7.3-5.1,19.7-11.2,37.5-11.2
						c16.7,0,55.8-5.8,63.7-58.5c0.3-2.2,2.3-3.8,4.5-3.5l8.1,0.9c2.3,0.3,3.9,2.4,3.6,4.6c-9.8,67.4-63.4,72.8-79.8,72.8
						c-10.9,0-20.4,2.8-28.1,8.2c-3.7,2.6-6,7-6,11.8V183C145.1,185.3,143.3,187.1,141,187.1z"/>
				</g>
			</g>
		</g>
		<g>
			<path class="st4" d="M38,253.4c0-17.7,8.3-26.6,25-26.6c3.6,0,7.2,0.5,10.7,1.5c3.5,1,5.3,2.3,5.3,3.7c0,1.1-0.6,2.5-1.8,4.3
				c-1.2,1.8-2.2,2.7-3.1,2.7c-0.1,0-0.7-0.2-1.6-0.6c-2.7-1.2-6-1.8-9.7-1.8c-8.6,0-12.9,5.6-12.9,16.9c0,11.3,4.3,16.9,12.8,16.9
				c2,0,3.9-0.2,5.8-0.5v-9.5h-6.6c-1.5,0-2.2-1.2-2.2-3.7v-2.4c0-2.5,0.7-3.7,2.2-3.7H77c2,0,3,1,3,3v20.8c0,1.2-0.6,2.2-1.9,3.1
				c-1.3,0.8-2.9,1.4-4.9,1.8c-3.6,0.7-7.1,1-10.6,1c-8.4,0-14.6-2.2-18.6-6.5C40,269.4,38,262.6,38,253.4z"/>
			<path class="st4" d="M118.7,277.5v-22.9l-14.9-24c-0.5-0.8-0.7-1.5-0.7-1.9c0-1,1.6-1.5,4.8-1.5h3.2c2.4,0,3.9,0.5,4.5,1.4
				l9.1,16l9.2-16c0.5-0.9,2-1.4,4.5-1.4h2.7c3.1,0,4.7,0.5,4.7,1.5c0,0.5-0.2,1.1-0.7,1.9l-14.9,24.2v22.7c0,1.6-1.5,2.4-4.5,2.4
				h-2.5C120.2,279.9,118.7,279.1,118.7,277.5z"/>
			<path class="st4" d="M169.2,277.5v-47.9c0-1.6,1.5-2.4,4.5-2.4h4c2.4,0,4,0.7,4.7,2l13.2,23.4l13.3-23.4c0.7-1.3,2.3-2,4.7-2h3.9
				c3,0,4.5,0.8,4.5,2.4v47.9c0,1.6-1.5,2.4-4.5,2.4h-2.2c-3,0-4.5-0.8-4.5-2.4v-31l-0.3-0.1l-10.8,19.4c-0.7,0.9-1.7,1.4-3,1.4
				h-2.2c-1.3,0-2.3-0.5-3-1.4l-10.8-19.4l-0.3,0.1v31c0,1.6-1.5,2.4-4.5,2.4h-2.2C170.7,279.9,169.2,279.1,169.2,277.5z"/>
			<path class="st4" d="M250.5,277.5v-47.9c0-1.6,1.5-2.5,4.5-2.5h2.6c3,0,4.5,0.8,4.5,2.5v47.9c0,1.6-1.5,2.5-4.5,2.5h-2.6
				C252,280,250.5,279.1,250.5,277.5z"/>
		</g>
	</g>
</g>
</svg>
